<?xml version="1.0" encoding="UTF-8"?>
<svg width="512px" height="512px" viewBox="0 0 512 512" version="1.1" xmlns="http://www.w3.org/2000/svg" xmlns:xlink="http://www.w3.org/1999/xlink">
    <!-- Generator: Sketch 43.2 (39069) - http://www.bohemiancoding.com/sketch -->
    <title>Untitled</title>
    <desc>Created with Sketch.</desc>
    <defs></defs>
    <g id="Page-1" stroke="none" stroke-width="1" fill="none" fill-rule="evenodd">
        <g id="internet" fill-rule="nonzero" fill="#FFFFFF">
            <path d="M256,0 C114.842,0 0,114.842 0,256 C0,397.158 114.842,512 256,512 C397.158,512 512,397.158 512,256 C512,114.842 397.158,0 256,0 Z M194.27,34.43 C183.391,45.372 173.453,59.758 164.867,78.375 C158.309,92.592 152.639,108.964 147.903,124.718 L67.21,124.718 C97.373,81.395 142.101,49 194.27,34.43 Z M51.43,150.974 L141.401,150.974 C135.29,179.856 131.731,211.364 130.993,242.871 L26.607,242.871 C28.398,210.051 37.15,179.856 51.43,150.974 Z M26.673,269.128 L131.023,269.128 C131.823,301.948 135.441,333.456 141.623,361.025 L51.98,361.025 C37.534,333.456 28.614,303.262 26.673,269.128 Z M67.933,387.282 L148.199,387.282 C152.875,404.349 158.444,419.054 164.865,432.975 C173.278,451.213 183.071,465.622 193.801,476.792 C142.251,462.276 97.995,430.605 67.933,387.282 Z M242.872,483.601 C217.928,474.978 191.865,441.108 175.407,387.282 L242.872,387.282 L242.872,483.601 Z M242.872,361.026 L168.34,361.026 C162.104,334.77 158.126,303.262 157.278,269.129 L242.871,269.129 L242.871,361.026 L242.872,361.026 Z M242.872,242.872 L157.259,242.872 C158.035,211.364 161.799,179.857 168.26,150.975 L242.872,150.975 L242.872,242.872 Z M242.872,124.718 L175.26,124.718 C179.158,112.903 183.434,100.468 188.492,89.502 C203.845,56.214 223.179,34.912 242.872,28.372 L242.872,124.718 L242.872,124.718 Z M485.393,242.872 L381.007,242.872 C380.269,211.364 376.711,179.857 370.599,150.975 L460.57,150.975 C474.85,179.856 483.602,210.051 485.393,242.872 Z M444.79,124.718 L364.097,124.718 C359.36,108.964 353.692,92.722 347.134,78.505 C338.61,60.024 329.043,45.456 318.624,34.543 C370.411,49.232 414.799,82.708 444.79,124.718 Z M269.128,28.652 C288.82,35.527 307.944,56.699 323.074,89.501 C328.132,100.467 332.841,112.902 336.739,124.717 L269.127,124.717 L269.127,28.652 L269.128,28.652 Z M269.128,150.974 L343.74,150.974 C350.2,179.856 353.966,211.364 354.741,242.871 L269.128,242.871 L269.128,150.974 Z M269.128,269.128 L354.721,269.128 C353.873,303.261 349.895,334.769 343.659,361.025 L269.128,361.025 L269.128,269.128 Z M269.128,483.316 L269.128,387.282 L336.593,387.282 C320.319,439.795 295.385,474.221 269.128,483.316 Z M319.588,476.525 C329.601,465.408 338.822,450.866 347.134,432.845 C353.555,418.924 359.124,404.349 363.8,387.282 L444.066,387.282 C414.275,430.605 370.545,461.827 319.588,476.525 Z M460.02,361.026 L370.378,361.026 C376.559,333.457 380.178,301.949 380.978,269.129 L485.328,269.129 C483.386,303.262 474.466,333.456 460.02,361.026 Z" id="Shape"></path>
        </g>
    </g>
</svg>