<?xml version="1.0" encoding="UTF-8"?>
<svg width="202px" height="202px" viewBox="0 0 202 202" version="1.1" xmlns="http://www.w3.org/2000/svg" xmlns:xlink="http://www.w3.org/1999/xlink">
    <!-- Generator: Sketch 43.2 (39069) - http://www.bohemiancoding.com/sketch -->
    <title>Untitled 3</title>
    <desc>Created with Sketch.</desc>
    <defs></defs>
    <g id="Page-1" stroke="none" stroke-width="1" fill="none" fill-rule="evenodd">
        <g id="question-mark-circle" transform="translate(3.000000, 3.000000)">
            <circle id="Oval" stroke="#000000" stroke-width="6" cx="98" cy="98" r="98"></circle>
            <path d="M91.462773,135.609369 C91.3291885,128.262216 91.8301232,121.583087 92.9655922,115.57178 C94.1010612,109.560473 97.273648,103.816422 102.483447,98.339454 C105.422308,95.2670083 108.494707,92.2614 111.700738,89.322539 C114.906768,86.383678 117.845585,83.4114654 120.517277,80.4058121 C123.188968,77.4001587 125.426477,74.2943635 127.229869,71.0883333 C129.033261,67.8823031 129.934943,64.4091558 129.934943,60.6687872 C129.934943,57.0620032 129.233635,53.6890429 127.830996,50.549805 C126.428358,47.410567 124.391224,44.672124 121.719532,42.3343936 C119.04784,39.9966633 115.775067,38.1599027 111.901113,36.8240567 C108.02716,35.4882108 103.618935,34.8202979 98.676305,34.8202979 C93.7336751,34.8202979 89.3254496,35.6885847 85.4514965,37.4251844 C81.5775433,39.1617841 78.3381655,41.5662707 75.733266,44.6387163 C73.1283664,47.7111619 70.0868859,55.3588262 69.8221773,55.3588262 L69.5574687,55.3588262 L58,50.549805 C60.0037689,44.9726487 62.9759815,40.2638625 66.916727,36.323117 C70.8574724,32.3823715 75.5662587,29.3433677 81.043227,27.2060142 C86.5201952,25.0686607 92.5314117,24 99.077057,24 C105.889871,24 112.001274,24.9016825 117.41145,26.7050745 C122.821626,28.5084665 127.39683,31.0465356 131.137199,34.3193582 C134.877567,37.5921807 137.749593,41.5662627 139.753362,46.2417234 C141.757131,50.9171841 142.759,56.0601138 142.759,61.6706667 C142.759,67.5483887 141.45657,72.5911314 138.85167,76.7990461 C136.246771,81.0069608 133.074184,84.9142515 129.333816,88.5210355 C125.593447,92.1278195 121.719552,95.767945 117.712014,99.441521 C113.704476,103.115098 110.231329,107.222762 107.292468,111.764638 C105.02153,115.237838 103.752495,119.078337 103.485326,123.286252 C103.218157,127.494166 103.084574,131.601831 103.084574,135.609369 L91.462773,135.609369 Z M90.2605177,172.07778 L90.2605177,154.444702 L104.887957,154.444702 L104.887957,172.07778 L90.2605177,172.07778 Z" id="?" fill="#000000" fill-rule="nonzero"></path>
        </g>
    </g>
</svg>