<?xml version="1.0" encoding="UTF-8"?>
<svg width="59px" height="59px" viewBox="0 0 59 59" version="1.1" xmlns="http://www.w3.org/2000/svg" xmlns:xlink="http://www.w3.org/1999/xlink">
    <!-- Generator: Sketch 43.2 (39069) - http://www.bohemiancoding.com/sketch -->
    <title>Untitled 8</title>
    <desc>Created with Sketch.</desc>
    <defs></defs>
    <g id="Page-1" stroke="none" stroke-width="1" fill="none" fill-rule="evenodd">
        <g id="question-mark-circle-black">
            <path d="M29.364,0.729 C45.27,0.729 58.164,13.623 58.164,29.529 C58.164,45.435 45.27,58.329 29.364,58.329 C13.458,58.329 0.564,45.435 0.564,29.529 C0.564,13.623 13.458,0.729 29.364,0.729 Z" id="Shape" stroke="#FFFFFF"></path>
            <path d="M26.4884495,41.4427755 L30.9104123,41.4427755 L30.9104123,46.0647266 L26.4884495,46.0647266 L26.4884495,41.4427755 Z M21.710952,15.9220508 C23.5182624,13.9740072 25.9995735,13 29.1549597,13 C32.0733216,13 34.4101981,13.8332761 36.1656595,15.4998533 C37.9211208,17.1664305 38.7988383,19.2959139 38.7988383,21.8883674 C38.7988383,23.4586534 38.4766382,24.73264 37.8322283,25.7103653 C37.1878185,26.6880906 35.8879078,28.125029 33.9324572,30.0212235 C32.5103113,31.3989273 31.5881524,32.5655139 31.1659528,33.5210181 C30.7437533,34.4765224 30.5326566,35.8875366 30.5326566,37.7541031 L26.5773332,37.7541031 C26.5773332,35.6356983 26.8291677,33.9284081 27.3328444,32.6321814 C27.8365211,31.3359547 28.940149,29.8508715 30.6437612,28.1768873 L32.4214347,26.4214347 C32.9547394,25.917758 33.3843395,25.3918682 33.710248,24.8437495 C34.3028088,23.8808382 34.5990847,22.8809069 34.5990847,21.8439255 C34.5990847,20.3921516 34.1657811,19.1329788 33.299161,18.0663694 C32.4325408,16.99976 30.9993059,16.4664633 28.9994133,16.4664633 C26.525472,16.4664633 24.8144784,17.3849187 23.8663811,19.2218571 C23.3330764,20.2440245 23.0293936,21.7179974 22.9553235,23.6438199 L19,23.6438199 C19,20.4439917 19.9036416,17.8700944 21.710952,15.9220508 Z" id="?" fill="#FFFFFF"></path>
        </g>
    </g>
</svg>