<?xml version="1.0" encoding="UTF-8"?>
<svg width="202px" height="202px" viewBox="0 0 202 202" version="1.1" xmlns="http://www.w3.org/2000/svg" xmlns:xlink="http://www.w3.org/1999/xlink">
    <!-- Generator: Sketch 43.2 (39069) - http://www.bohemiancoding.com/sketch -->
    <title>question-mark-circle</title>
    <desc>Created with Sketch.</desc>
    <defs></defs>
    <g id="Page-1" stroke="none" stroke-width="1" fill="none" fill-rule="evenodd">
        <circle id="Oval" stroke="#FFFFFF" stroke-width="6" cx="101" cy="101" r="98"></circle>
        <path d="M94.462773,138.609369 C94.3291885,131.262216 94.8301232,124.583087 95.9655922,118.57178 C97.1010612,112.560473 100.273648,106.816422 105.483447,101.339454 C108.422308,98.2670083 111.494707,95.2614 114.700738,92.322539 C117.906768,89.383678 120.845585,86.4114654 123.517277,83.4058121 C126.188968,80.4001587 128.426477,77.2943635 130.229869,74.0883333 C132.033261,70.8823031 132.934943,67.4091558 132.934943,63.6687872 C132.934943,60.0620032 132.233635,56.6890429 130.830996,53.549805 C129.428358,50.410567 127.391224,47.672124 124.719532,45.3343936 C122.04784,42.9966633 118.775067,41.1599027 114.901113,39.8240567 C111.02716,38.4882108 106.618935,37.8202979 101.676305,37.8202979 C96.7336751,37.8202979 92.3254496,38.6885847 88.4514965,40.4251844 C84.5775433,42.1617841 81.3381655,44.5662707 78.733266,47.6387163 C76.1283664,50.7111619 73.0868859,58.3588262 72.8221773,58.3588262 L72.5574687,58.3588262 L61,53.549805 C63.0037689,47.9726487 65.9759815,43.2638625 69.916727,39.323117 C73.8574724,35.3823715 78.5662587,32.3433677 84.043227,30.2060142 C89.5201952,28.0686607 95.5314117,27 102.077057,27 C108.889871,27 115.001274,27.9016825 120.41145,29.7050745 C125.821626,31.5084665 130.39683,34.0465356 134.137199,37.3193582 C137.877567,40.5921807 140.749593,44.5662627 142.753362,49.2417234 C144.757131,53.9171841 145.759,59.0601138 145.759,64.6706667 C145.759,70.5483887 144.45657,75.5911314 141.85167,79.7990461 C139.246771,84.0069608 136.074184,87.9142515 132.333816,91.5210355 C128.593447,95.1278195 124.719552,98.767945 120.712014,102.441521 C116.704476,106.115098 113.231329,110.222762 110.292468,114.764638 C108.02153,118.237838 106.752495,122.078337 106.485326,126.286252 C106.218157,130.494166 106.084574,134.601831 106.084574,138.609369 L94.462773,138.609369 Z M93.2605177,175.07778 L93.2605177,157.444702 L107.887957,157.444702 L107.887957,175.07778 L93.2605177,175.07778 Z" id="?" fill="#FFFFFF"></path>
    </g>
</svg>