<?xml version="1.0" encoding="UTF-8"?>
<svg width="145px" height="51px" viewBox="0 0 145 51" version="1.1" xmlns="http://www.w3.org/2000/svg" xmlns:xlink="http://www.w3.org/1999/xlink">
    <!-- Generator: Sketch 41.2 (35397) - http://www.bohemiancoding.com/sketch -->
    <title>skrill-logo-white-transparent</title>
    <desc>Created with Sketch.</desc>
    <defs></defs>
    <g id="Page-1" stroke="none" stroke-width="1" fill="none" fill-rule="evenodd">
        <g id="skrill-logo-white" fill="#FFFFFF">
            <g id="Page-1">
                <g id="skrill-logo-web-1-rgb">
                    <g id="Fill-1-Clipped">
                        <path d="M104.049317,12.7876623 C107.333216,12.7876623 109.994956,10.0831169 109.994956,6.74805195 C109.994956,3.41103896 107.333216,0.703896104 104.049317,0.703896104 C100.769251,0.703896104 98.1087885,3.41103896 98.1087885,6.74805195 C98.1087885,10.0831169 100.769251,12.7876623 104.049317,12.7876623 L104.049317,12.7876623 Z M58.5135683,16.0493506 C58.2452863,16.7344156 56.3142952,22.2792208 51.6442731,28.025974 L51.6442731,3.4538961 L39.2011013,5.9538961 L39.2011013,50.4935065 L51.6442731,50.4935065 L51.6442731,36.725974 C55.2481938,42.2207792 57.0277974,50.4935065 57.0277974,50.4935065 L71.9321366,50.4935065 C70.4578634,44.262987 64.0088767,32.7746753 64.0088767,32.7746753 C69.7967401,25.3149351 72.3390308,17.3662338 72.74337,16.0493506 L58.5135683,16.0493506 L58.5135683,16.0493506 Z M91.2260793,15.5844156 C80.0808811,15.9480519 74.423326,21.0311688 74.423326,31.1357143 L74.423326,50.4935065 L86.5822467,50.4935065 L86.5822467,34.7077922 C86.5822467,28.6571429 87.3615419,26.0636364 94.4243833,25.8162338 L94.4243833,15.7616883 C93.2356388,15.5051948 91.2260793,15.5844156 91.2260793,15.5844156 L91.2260793,15.5844156 Z M18.3325991,20.9538961 C16.8085022,20.8519481 13.2799559,20.6201299 13.2799559,17.3909091 C13.2799559,13.4941558 18.3600661,13.4941558 20.2655066,13.4941558 C23.615837,13.4941558 27.954978,14.5006494 31.0536344,15.4428571 C31.0536344,15.4428571 32.7821366,16.0623377 34.2532159,16.6967532 L34.3899119,16.7344156 L34.3899119,6.06233766 L34.2021145,6.00584416 C30.5451762,4.70519481 26.2929075,3.4538961 18.4092511,3.4538961 C4.81629956,3.4538961 0,11.5038961 0,18.4 C0,22.3753247 1.67612335,31.7311688 17.2435022,32.8103896 C18.5631938,32.8928571 22.0655507,33.0980519 22.0655507,36.4350649 C22.0655507,39.1902597 19.1981278,40.8149351 14.3754405,40.8149351 C9.09028634,40.8149351 3.96354626,39.4448052 0.849559471,38.1454545 L0.849559471,49.137013 C5.51127753,50.3792208 10.7664097,51 16.9253965,51 C30.2162115,51 36.1688767,43.3837662 36.1688767,35.8350649 C36.1688767,27.275974 29.5078194,21.7149351 18.3325991,20.9538961 L18.3325991,20.9538961 Z M98.0219163,50.4935065 L110.082467,50.4935065 L110.082467,16.0883117 L98.0219163,16.0883117 L98.0219163,50.4935065 Z M132.791894,5.6474026 L132.791894,50.4935065 L144.854361,50.4935065 L144.854361,3.4538961 L132.791894,5.6474026 L132.791894,5.6474026 Z M115.191322,5.6474026 L127.242291,3.4538961 L127.242291,50.4935065 L115.191322,50.4935065 L115.191322,5.6474026 L115.191322,5.6474026 Z" id="Fill-1"></path>
                    </g>
                </g>
            </g>
        </g>
    </g>
</svg>