<?xml version="1.0" encoding="utf-8"?>
<!-- Generator: Adobe Illustrator 18.1.1, SVG Export Plug-In . SVG Version: 6.00 Build 0)  -->
<svg version="1.1" xmlns="http://www.w3.org/2000/svg" xmlns:xlink="http://www.w3.org/1999/xlink" x="0px" y="0px"
	 viewBox="0 0 100 100" enable-background="new 0 0 100 100" xml:space="preserve">
<g id="ICONS_-_WHITE">
	<g display="inline">
		<g>
			<path fill="#FFFFFF" d="M50,52.4c-4.1,0-7.5,3.4-7.5,7.6c0,2.4,1.2,4.7,3.1,6.1l0.1,0.1l0,6.5c0,0.7,0.5,1.2,1.2,1.2H53
				c0.7,0,1.2-0.5,1.2-1.2l0-6.4l0.1-0.1c2-1.4,3.2-3.7,3.2-6.1C57.5,55.8,54.1,52.4,50,52.4z M52.4,64.4l-0.6,0.3v6.6h-3.6v-6.6
				l-0.6-0.3c-1.6-0.9-2.6-2.6-2.6-4.5c0-2.8,2.3-5.1,5.1-5.1c2.8,0,5.1,2.3,5.1,5.1C55.1,61.8,54.1,63.5,52.4,64.4z"/>
			<path fill="#FFFFFF" d="M77.2,43.5h-6.6v-7.9c0-11.4-9.2-20.7-20.6-20.7c-11.4,0-20.6,9.3-20.6,20.7v7.9h-6.6
				c-2.3,0-4.2,1.9-4.2,4.3v32.4c0,2.4,1.9,4.3,4.2,4.3h54.4c2.3,0,4.2-1.9,4.2-4.3V47.7C81.4,45.4,79.5,43.5,77.2,43.5z M31.8,35.6
				c0-10.1,8.2-18.3,18.2-18.3c10,0,18.2,8.2,18.2,18.3v7.9H31.8V35.6z M79,80.2c0,1-0.8,1.8-1.8,1.8H22.8c-1,0-1.8-0.8-1.8-1.8
				V47.7c0-1,0.8-1.8,1.8-1.8h54.4c1,0,1.8,0.8,1.8,1.8V80.2z"/>
		</g>
	</g>
</g>
<g id="LABELS">
</g>
</svg>
