<svg width="164" height="82" viewBox="0 0 164 82" xmlns="http://www.w3.org/2000/svg" xmlns:xlink="http://www.w3.org/1999/xlink"><title>Slice 1</title><defs><linearGradient x1="34.482%" y1="36.342%" x2="57.429%" y2="96.253%" id="a"><stop stop-color="#821E69" offset="0%"/><stop stop-color="#4F2556" offset="100%"/></linearGradient><path d="M8.98 30.976c-3.17-.094-5.944-.466-8.447-1.116v-6.728c1.954.796 5.172 1.634 8.49 1.634 3.025 0 4.825-.994 4.825-2.68 0-2.043-2.198-2.168-3.026-2.22C1.052 19.207 0 13.48 0 11.047 0 6.827 3.023 1.9 11.553 1.9c4.948 0 7.617.765 9.912 1.56l.118.036v6.532l-.086-.023c-.923-.39-2.008-.768-2.008-.768-1.946-.576-4.67-1.193-6.772-1.193-1.195 0-4.384 0-4.384 2.386 0 1.976 2.215 2.118 3.17 2.18 7.015.466 11.195 3.87 11.195 9.108 0 4.428-3.432 8.894-11.06 9.258H8.98zM65.3 7.612c2.06 0 3.73-1.655 3.73-3.696 0-2.043-1.67-3.7-3.73-3.7s-3.728 1.657-3.728 3.7c0 2.04 1.67 3.696 3.728 3.696zM36.722 9.608c-.168.42-1.38 3.813-4.31 7.33V1.9L24.6 3.43V30.69h7.81v-8.426c2.26 3.363 3.378 8.426 3.378 8.426h9.354c-.926-3.813-4.973-10.845-4.973-10.845 3.633-4.566 5.23-9.43 5.483-10.237h-8.93zm20.53-.284c-6.994.222-10.545 3.334-10.545 9.518V30.69h7.63v-9.662c0-3.703.49-5.29 4.922-5.442V9.432c-.747-.157-2.008-.108-2.008-.108zm4.265 21.366h7.57V9.632h-7.57V30.69zM83.34 3.242V30.69h7.568V1.9l-7.57 1.342zm-11.048 0L79.856 1.9v28.79h-7.564V3.242z" id="b"/></defs><g fill="none" fill-rule="evenodd"><path fill="url(#a)" d="M0 0h164v82H0z"/><g transform="translate(37 22)"><mask id="c" fill="#fff"><use xlink:href="#b"/></mask><path fill="#FFF" mask="url(#c)" d="M-.016 30.976h90.968V.216H-.016"/></g></g></svg>